<svg width="24" height="25" viewBox="0 0 24 25" fill="none" xmlns="http://www.w3.org/2000/svg">
<g clip-path="url(#clip0_247_124)">
<path d="M13.12 25H10.88C10.123 25 9.484 24.4094 9.394 23.625L9.155 21.6708C8.678 21.5094 8.218 21.3104 7.781 21.0781L6.287 22.2875C5.681 22.776 4.828 22.7198 4.302 22.1562L2.727 20.5156C2.19 19.9729 2.136 19.0844 2.605 18.4542L3.766 16.8969C3.542 16.4417 3.351 15.9625 3.197 15.4656L1.317 15.2167C0.567 15.1208 0 14.4552 0 13.6667V11.3333C0 10.5448 0.567 9.87917 1.32 9.78542L3.196 9.53646C3.351 9.03958 3.542 8.56042 3.765 8.10521L2.605 6.54896C2.135 5.91771 2.19 5.02812 2.732 4.48021L4.307 2.83958C4.828 2.28021 5.682 2.225 6.286 2.7125L7.78 3.92292C8.217 3.69062 8.677 3.49167 9.155 3.33021L9.394 1.37187C9.484 0.590625 10.123 0 10.88 0H13.12C13.877 0 14.516 0.590625 14.606 1.375L14.845 3.32917C15.323 3.49062 15.783 3.68958 16.22 3.92188L17.714 2.7125C18.321 2.22396 19.173 2.28021 19.699 2.84479L21.274 4.48542C21.811 5.02813 21.865 5.91667 21.396 6.54687L20.235 8.10417C20.459 8.55937 20.65 9.03854 20.804 9.53542L22.684 9.78437C23.433 9.87917 24 10.5448 24 11.3333V13.6667C24 14.4552 23.433 15.1208 22.68 15.2146L20.804 15.4635C20.649 15.9604 20.458 16.4396 20.235 16.8948L21.396 18.451C21.866 19.0823 21.811 19.9708 21.269 20.5187L19.694 22.1594C19.173 22.7188 18.319 22.776 17.715 22.2865L16.22 21.0771C15.783 21.3104 15.323 21.5094 14.846 21.6698L14.607 23.6281C14.516 24.4094 13.877 25 13.12 25ZM7.73 19.9375C7.813 19.9375 7.898 19.9594 7.974 20.0031C8.525 20.324 9.122 20.5823 9.748 20.7698C9.94 20.8271 10.081 20.9979 10.106 21.2042L10.386 23.4958C10.416 23.7573 10.633 23.9583 10.88 23.9583H13.12C13.367 23.9583 13.584 23.7573 13.613 23.501L13.894 21.2052C13.919 20.999 14.06 20.8281 14.252 20.7708C14.878 20.5833 15.475 20.325 16.026 20.0042C16.201 19.9021 16.419 19.9198 16.576 20.0479L18.326 21.4646C18.527 21.6271 18.809 21.6135 18.981 21.4292L20.566 19.7781C20.747 19.5948 20.761 19.301 20.605 19.0906L19.245 17.2677C19.122 17.1031 19.105 16.8771 19.203 16.6948C19.511 16.1208 19.759 15.499 19.939 14.8469C19.994 14.6469 20.158 14.5 20.356 14.474L22.556 14.1823C22.807 14.15 23 13.924 23 13.6667V11.3333C23 11.076 22.807 10.85 22.561 10.8198L20.357 10.5271C20.159 10.501 19.995 10.3542 19.94 10.1542C19.76 9.50208 19.512 8.88021 19.204 8.30625C19.106 8.12396 19.122 7.89792 19.246 7.73333L20.606 5.91042C20.763 5.7 20.749 5.40625 20.573 5.22917L18.988 3.57812C18.813 3.38854 18.53 3.37396 18.328 3.5375L16.578 4.95417C16.419 5.08229 16.202 5.1 16.027 4.99792C15.478 4.67708 14.881 4.41979 14.253 4.23125C14.061 4.17396 13.92 4.00312 13.895 3.79687L13.615 1.50521C13.584 1.24271 13.367 1.04167 13.12 1.04167H10.88C10.633 1.04167 10.416 1.24271 10.387 1.49896L10.106 3.79479C10.081 4.00104 9.94 4.17187 9.748 4.23021C9.12 4.41771 8.523 4.67604 7.974 4.99583C7.799 5.09896 7.582 5.08021 7.423 4.95312L5.673 3.53646C5.471 3.37292 5.19 3.3875 5.019 3.57083L3.434 5.22292C3.253 5.40625 3.239 5.7 3.395 5.91042L4.755 7.73333C4.878 7.89792 4.895 8.12396 4.797 8.30625C4.488 8.88021 4.241 9.50208 4.061 10.1542C4.006 10.3542 3.842 10.501 3.644 10.5271L1.444 10.8187C1.193 10.85 1 11.076 1 11.3333V13.6667C1 13.924 1.193 14.15 1.439 14.1802L3.643 14.4729C3.841 14.499 4.005 14.6458 4.06 14.8458C4.24 15.4979 4.488 16.1198 4.796 16.6937C4.894 16.876 4.878 17.1021 4.754 17.2667L3.394 19.0896C3.237 19.3 3.251 19.5937 3.427 19.7708L5.012 21.4219C5.187 21.6104 5.468 21.625 5.672 21.4625L7.422 20.0458C7.513 19.975 7.621 19.9375 7.73 19.9375Z" fill="#333333"/>
<path d="M12 17.7082C9.243 17.7082 7 15.3717 7 12.4998C7 9.62796 9.243 7.2915 12 7.2915C14.757 7.2915 17 9.62796 17 12.4998C17 15.3717 14.757 17.7082 12 17.7082ZM12 8.33317C9.794 8.33317 8 10.2019 8 12.4998C8 14.7978 9.794 16.6665 12 16.6665C14.206 16.6665 16 14.7978 16 12.4998C16 10.2019 14.206 8.33317 12 8.33317Z" fill="#333333"/>
</g>
<defs>
<clipPath id="clip0_247_124">
<rect width="24" height="25" fill="white"/>
</clipPath>
</defs>
</svg>
