<svg width="28" height="28" viewBox="0 0 28 28" fill="none" xmlns="http://www.w3.org/2000/svg">
<path d="M18.5939 21.4386H18.0129C17.7902 19.8968 16.4047 19.4698 15.6408 19.4698C14.467 19.4698 14.012 20.4953 13.6865 21.4386H10.8873C11.0028 20.9823 11.3458 20.3448 12.3595 20.3448C12.601 20.3448 12.797 20.1493 12.797 19.9073C12.797 19.6654 12.601 19.4698 12.3595 19.4698C10.7539 19.4698 10.1471 20.5885 9.99572 21.4386H9.4064C9.1649 21.4386 8.9689 21.6341 8.9689 21.8761C8.9689 22.118 9.1649 22.3136 9.4064 22.3136H9.99572C10.1471 23.1636 10.7543 24.2823 12.3595 24.2823C13.5333 24.2823 13.9883 23.2568 14.3138 22.3136H17.1222C16.8793 23.357 15.7808 23.406 15.6386 23.4073C15.3975 23.4082 15.2028 23.6038 15.2028 23.8448C15.2028 24.0868 15.3984 24.2823 15.6403 24.2823C16.4042 24.2823 17.7898 23.8553 18.0125 22.3136H18.5939C18.8358 22.3136 19.0314 22.118 19.0314 21.8761C19.0314 21.6341 18.8358 21.4386 18.5939 21.4386ZM15.6408 20.3448C15.7803 20.3448 16.882 20.382 17.123 21.4386H14.6188C14.8804 20.75 15.1433 20.3448 15.6408 20.3448ZM12.3595 23.4073C11.3563 23.4073 11.0107 22.7699 10.8913 22.3136H13.3815C13.1199 23.0018 12.8565 23.4073 12.3595 23.4073ZM23.6247 21.8743V10.9386C23.6247 9.20827 22.1937 8.75109 21.4372 8.75109H6.56265C4.83234 8.75109 4.37515 9.89559 4.37515 10.5011V21.8743H1.75146V27.1243H26.2488V21.8743H23.6247ZM8.72259 9.62609H19.2755C19.4781 11.4478 20.9275 12.8977 22.7497 13.1003V26.2458H19.4518C20.4406 25.0147 21.0002 23.4734 21.0002 21.8761C21.0002 18.0165 17.8598 14.8761 14.0002 14.8761C10.1405 14.8761 7.00015 18.0165 7.00015 21.8761C7.00015 23.4734 7.56015 25.0147 8.54846 26.2458H5.25015V12.6706C7.17078 12.514 8.52397 11.3236 8.72259 9.62609ZM9.7249 26.2458C8.55022 25.1022 7.87515 23.5215 7.87515 21.8761C7.87515 18.4986 10.6227 15.7511 14.0002 15.7511C17.3777 15.7511 20.1252 18.4986 20.1252 21.8761C20.1252 23.522 19.4501 25.1022 18.2758 26.2458H9.7249ZM22.7497 10.9386V12.2161C21.4114 12.0231 20.3527 10.9644 20.1597 9.62609H21.4346C21.6542 9.62871 22.7497 9.70396 22.7497 10.9386ZM6.56265 9.62609H7.83928C7.63453 10.9736 6.48959 11.6596 5.25015 11.7886V10.5072C5.25453 10.3602 5.33809 9.62609 6.56265 9.62609ZM2.62646 22.7493H4.37515V26.2493H2.62646V22.7493ZM25.3738 26.2493H23.6247V22.7493H25.3738V26.2493ZM10.0994 5.25109H11.411V7.43859C11.411 7.68009 11.607 7.87609 11.8485 7.87609H15.3503C15.5922 7.87609 15.7878 7.68009 15.7878 7.43859V5.25109H17.0994H17.1082C17.3501 5.25109 17.5457 5.05509 17.5457 4.81359C17.5457 4.66615 17.473 4.53577 17.3615 4.45659L13.9087 1.00427C13.7377 0.833211 13.4612 0.833211 13.2901 1.00427L9.79009 4.50427C9.66497 4.6294 9.62734 4.81752 9.69515 4.98115C9.76297 5.14434 9.92265 5.25109 10.0994 5.25109ZM13.5994 1.93221L16.0433 4.37609H15.3503C15.1083 4.37609 14.9128 4.57209 14.9128 4.81359V7.00109H12.286V4.81359C12.286 4.57209 12.09 4.37609 11.8485 4.37609H11.156L13.5994 1.93221Z" fill="#333333"/>
</svg>
